<svg xmlns="http://www.w3.org/2000/svg" viewBox="0 0 739.66 316.11"><defs><style>.cls-1,.cls-3,.cls-5,.cls-6,.cls-7,.cls-8,.cls-9{fill:#324135;}.cls-2{fill:#f9f9f4;fill-rule:evenodd;}.cls-3,.cls-4,.cls-5,.cls-6,.cls-7,.cls-8,.cls-9{isolation:isolate;}.cls-3,.cls-5,.cls-6{font-size:178.75px;}.cls-3,.cls-5,.cls-6,.cls-7,.cls-8,.cls-9{font-family:SourceSerifPro-Regular, Source Serif Pro;}.cls-5{letter-spacing:-0.05em;}.cls-6{letter-spacing:-0.02em;}.cls-7,.cls-8,.cls-9{font-size:75.26px;}.cls-8{letter-spacing:-0.01em;}.cls-9{letter-spacing:-0.01em;}</style></defs><title>Recurso 1</title><g id="Capa_2" data-name="Capa 2"><g id="Capa_1-2" data-name="Capa 1"><g id="Capa_1-2-2" data-name="Capa 1-2"><path class="cls-1" d="M177.32,307.79l4.09-21.27.41-16.48a1.5,1.5,0,0,1,0-.3l2.91-15.81,1.65-12.79a1.74,1.74,0,0,1,.16-.55l4.16-9.15a1.89,1.89,0,0,1,.68-.8l5.94-4,3.54-5.11a1.9,1.9,0,0,1,1.84-.81l6.06.87-1.5-7.59L204,203.26a1.91,1.91,0,0,1,.18-1.53l7.07-12.06a2.12,2.12,0,0,1,.46-.53l4-3.17,6.09-8.13a2,2,0,0,1,.93-.67l6.71-2.24,3-6.33a1.88,1.88,0,0,1,.69-.79l7.07-4.58a1.93,1.93,0,0,1,1.24-.3l15.81,1.66,15.47.4,11.55-1.93,4.62-6,1.59-15.5-.76-8.38-6.82-8.25-1.91,14a2.08,2.08,0,0,1-.18.6l-5,10a1.91,1.91,0,0,1-2.56.86,2.26,2.26,0,0,1-.26-.16L261.53,142l-11.33-3.24a1.91,1.91,0,0,1-.9-.57l-6.66-7.49a1.93,1.93,0,0,1-.43-.84l-2.36-10.23L232,112.57a1.89,1.89,0,0,1-.51-.74l-2.91-7.7a2,2,0,0,1-.13-.68V84.52a1.93,1.93,0,0,1,.73-1.51l9.2-7.2,4.48-9.71-5.59-17.17a1.89,1.89,0,0,1,.25-1.68l5.17-7.48-6.79-13.1L215,9,184.14,5,174,17.52,163.94,28.43a1.92,1.92,0,0,1-1.75.58L153,27.35a1.93,1.93,0,0,1-1.31-.91l-7.18-12.2-8.25,6.88a1.91,1.91,0,0,1-2,.27l-8.74-4-18.68.81a1.92,1.92,0,0,1-1.28-.42L89.59,5l-5,.72a1.91,1.91,0,0,1-1.13-.18L72.34,0,61.63,1.43l-3,8.85a2,2,0,0,1-.26.51l-3.8,5.32v7.71a1.92,1.92,0,0,1-1.51,1.87L35.83,29.45,39.6,47.56a1.93,1.93,0,0,1-.43,1.65l-5.42,6.2-1.6,16a1.92,1.92,0,0,1-.81,1.38L23,78.64a2,2,0,0,1-1.1.35h-.07L0,78.24l.12,3.35.41,36.64,4.65,9.68,9.71,8.9a.49.49,0,0,1,.12.13l7.9,8.74.12.15,5.82,7.9a1.87,1.87,0,0,1,.33.75l2.08,10,1.77,6,4.79,1.8,5.24-3.84,3.19-3.59a1.89,1.89,0,0,1,2.19-.48L58,168.52a2.43,2.43,0,0,1,.35.2l10.4,7.49a1.77,1.77,0,0,1,.62.76l6.24,13.73a1.9,1.9,0,0,1,.12,1.22l-2,9-.38,8.8,3.85,6.15a2,2,0,0,1,.27,1.29l-.73,5.13,4.62,7.31,5.86,10a2.25,2.25,0,0,1,.22.56l2,9.09,4.2,4.9L106,255.73h9.46a1.61,1.61,0,0,1,.49.07l12.48,3.33a1.91,1.91,0,0,1,1,.62l6.66,7.9a2,2,0,0,1,.45,1.13l.42,7.49a1.94,1.94,0,0,1-.31,1.15l-5.79,8.88,2,8.28,2.15.21,7.35-4.64a2,2,0,0,1,1.28-.28l12.06,1.66a1.91,1.91,0,0,1,1.58,1.37l3.08,10.78,5.53,2.42,5.08.39a1.9,1.9,0,0,1,1.69,1.38l1.85,6.47Z"/><path class="cls-2" d="M334.2,129.48a28.11,28.11,0,0,0-3.36-1.11.42.42,0,0,0,0-.27.43.43,0,0,0-.27-.24c-3.43-.91-7-1.62-10.44-2.29-4.4-.85-8.82-1.63-13.24-2.37q-9.88-1.67-19.8-3.14-4.56-.69-9.12-1.34l-84.12-13.09a20,20,0,0,0-3.94-6.71.4.4,0,0,0-.26-.14h-.47a22.79,22.79,0,0,0-10.54-6.17c-12-3.47-21.61-3-27.57,2.07h-.38a.41.41,0,0,0-.32.11,16.77,16.77,0,0,0-3,3.61l-.06.09-25.9-4c1-7.32-7.4-9-12.81-9-2.11,0-4.38,1.93-4.38,1.93s-1.76-2.8-3.68-2.11A4.74,4.74,0,0,0,98,87.77S96.72,84,89.7,85.9c-5.79,0-9,2.28-10.17,4.74s-4.56,10-4.56,10l-2.28,4.21s-4-.35-4.39,1.58-.53,3.51-.53,3.51l-2.63,4.39S48.83,134.15,45,143.62s-7.37,31.92-7.37,31.92S48.48,184,58,185s41,.35,41,.35,2.28,6,.35,20.17c-1.53,11.3-2.74,35.34-3.16,44.72,1.07,5.36,3.41,10.29,8.18,13.76,4,2.91,2.83,2,1.64,1.06-2-1.49-1-.77,0,0l2.09,1.59c-2.63,0-2.39.29-4.8-.66a18.38,18.38,0,0,1-9.12-8.1L90,266.4l2.46,19.29s-1,6.53,0,20.68a142.6,142.6,0,0,0,99.87,1.39c-3-10.69-5-16.28-5-16.28s.7-2.1.35-8.07-1.05-17.89-2.45-27c-.19-1.21-.36-2.39-.51-3.53-5.77,8.45-14.43,15.47-22.5,20.41-4,2.45-3.11,1.87-7.52,3.56a49.92,49.92,0,0,1,6.1-5.53c8.23-7,19.14-17.24,22.88-28.42v-.24c-9.13,9.39-21.36,16.41-32.44,18.85-5.2,1.14-5.48,1-10.55.26,2.23-.49,5.7-1.22,7.88-1.83,13.4-3.76,30.06-15.65,38.06-29.64,5.16-16,15-47.16,15.47-53.86.7-9.12-4.56-15.09-8.42-18.94s-13-8.07-13-8.07l.52-6.84a33.23,33.23,0,0,0,4.19-5.6c3.64-.92,5.49-5.65,6.68-9.4,1.11-3.5,1.36-5.27-.84-4.78.07-.29.15-.57.21-.84,4.81.6,6.23,1.34,6.23.18,0-.76-2.4-4.15-4.59-7.06.16-.73.3-1.37.42-1.94h0a.41.41,0,0,0,.48-.33h0c.2-1,.41-2,.53-3q49.92,8.22,99.85,16.33,14.88,2.41,29.78,4.79c1.49,6.84,5.44,22.24,8.24,27.52,3.15,6,10.52,6,13.86,3.51s5.26-6.49,5.08-8.77S342.09,133,334.2,129.48ZM148,141.23c-6.82,12.4-14.52-6.71-32.33-.61-6.1,2.08-8.14,5.43-12.72,7.24a47.65,47.65,0,0,1-15.34,5.47c-12.28,1.93-18.42,0-18.42,0s3.86-22.27,7.54-27.89,4.91-4.56,5.79-7a24.59,24.59,0,0,0,.88-2.63s3.86-.88,4.56-3a9.87,9.87,0,0,1,.88-2.28,26.08,26.08,0,0,0,11.22-4c0,2.94,5.92,24.88,8.32,33.61a24.12,24.12,0,0,1,2.32-1.69c9.84-6.19,19.34-3.36,25.18-.95-7.6-9.68-19.61-25.39-19.85-28.26-.48-5.71,4.06-7.46,4.9-11.63l24.84,4.12c-.24.61-.45,1.24-.65,1.87a.4.4,0,0,0,0,.34.38.38,0,0,0,.23.18A47.51,47.51,0,0,0,143.7,114c-.43.33-.48,0-1.58,2.21-.36.72-.77,14.82,4.1,15a48.79,48.79,0,0,1,1.19,6.9A3.27,3.27,0,0,1,148,141.23Z"/><text class="cls-3" transform="translate(290.46 169.87)">C</text><g class="cls-4"><text class="cls-5" transform="translate(403.25 169.87)">L</text><text class="cls-6" transform="translate(500.85 169.87)">U</text><text class="cls-3" transform="translate(627.23 169.87)">B</text></g><text class="cls-7" transform="translate(302.9 238.97)">C</text><g class="cls-4"><text class="cls-8" transform="translate(350.39 238.97)">A</text><text class="cls-7" transform="translate(399.61 238.97)">M</text><text class="cls-8" transform="translate(467.5 238.97)">P</text><text class="cls-7" transform="translate(511.08 238.97)">E</text><text class="cls-9" transform="translate(556.46 238.97)">S</text><text class="cls-7" transform="translate(594.24 238.97)">TRE</text></g></g></g></g></svg>