<svg xmlns="http://www.w3.org/2000/svg" viewBox="0 0 290.4 277"><defs><style>.cls-1{fill:#324135;}</style></defs><title>Recurso 2</title><g id="Capa_2" data-name="Capa 2"><g id="Capa_1-2" data-name="Capa 1"><g id="Capa_1-2-2" data-name="Capa 1-2"><path class="cls-1" d="M99.3,205.6c-1.5,11.3-2.7,35.3-3.2,44.7a30.26,30.26,0,0,0,1.12,4.08l-3.72-.48L89.3,249l-2-9.1a1.42,1.42,0,0,0-.2-.6l-5.9-10L76.6,222l.7-5.1a2.77,2.77,0,0,0-.3-1.3l-3.8-6.1.4-8.8,2-9a1.67,1.67,0,0,0-.1-1.2l-2.24-4.95c12,.11,25.74-.15,25.74-.15S101.3,191.4,99.3,205.6Z"/><path class="cls-1" d="M148,141.2c-6.8,12.4-14.5-6.7-32.3-.6-6.1,2.1-8.1,5.4-12.7,7.2a50.14,50.14,0,0,1-15.3,5.5c-12.3,1.9-18.4,0-18.4,0s3.9-22.3,7.5-27.9,4.9-4.6,5.8-7c.3-.9.6-1.7.9-2.6,0,0,3.9-.9,4.6-3a9.17,9.17,0,0,1,.9-2.3,26.49,26.49,0,0,0,11.2-4c0,2.9,5.9,24.9,8.3,33.6a19.52,19.52,0,0,1,2.3-1.7c9.8-6.2,19.3-3.4,25.2-.9-7.6-9.7-19.6-25.4-19.8-28.3-.5-5.7,4.1-7.5,4.9-11.6l24.8,4.1c-.2.6-.4,1.2-.6,1.9v.3a.22.22,0,0,0,.2.2,46.62,46.62,0,0,0-1.6,9.8c-.4.3-.5,0-1.6,2.2-.4.7-.8,14.8,4.1,15a41.56,41.56,0,0,1,1.2,6.9A3.6,3.6,0,0,1,148,141.2Z"/><path class="cls-1" d="M228.2,84.5v19.1a1.48,1.48,0,0,0,.1.7l2.7,7.18-37.1-5.78A20.35,20.35,0,0,0,190,99a.37.37,0,0,0-.3-.1h-.5a23,23,0,0,0-10.5-6.2c-12-3.5-21.6-3-27.6,2.1h-.4a.37.37,0,0,0-.3.1,19.9,19.9,0,0,0-2.9,3.6l-.1.1-25.9-4c1-7.3-7.4-9-12.8-9-2.1,0-4.4,1.9-4.4,1.9s-1.8-2.8-3.7-2.1A4.28,4.28,0,0,0,98,87.9s-1.2-3.8-8.3-1.9c-5.8,0-9,2.3-10.2,4.7s-4.6,10-4.6,10l-2.3,4.2s-4-.3-4.4,1.6a27.24,27.24,0,0,0-.5,3.5l-2.6,4.4S48.8,134.2,45,143.7c-2.83,7.06-5.54,21.26-6.75,28.07l-.45.33L33,170.3l-1.8-6-2.1-10a1.14,1.14,0,0,0-.3-.8L23,145.6l-.1-.1L15,136.8l-.1-.1-9.7-8.9L.5,118.1.1,81.5,0,78.2l21.8.7h.1a2,2,0,0,0,1.1-.3l8.4-5.7a2.19,2.19,0,0,0,.8-1.4l1.6-16,5.4-6.2a2.09,2.09,0,0,0,.4-1.7L35.8,29.5,53,25.7a1.93,1.93,0,0,0,1.5-1.9V16.1l3.8-5.3c.2-.1.2-.3.3-.5l3-8.9L72.3,0,83.5,5.5a1.39,1.39,0,0,0,1.1.2l5-.7,15.8,12.8a2,2,0,0,0,1.3.4l18.7-.8,8.7,4a1.84,1.84,0,0,0,2-.3l8.3-6.9,7.2,12.2a2,2,0,0,0,1.3.9l9.2,1.7a1.93,1.93,0,0,0,1.8-.6L174,17.5,184.1,5,215,9l20.7,17.6,6.8,13.1-5.2,7.5a1.75,1.75,0,0,0-.3,1.7l5.6,17.2-4.5,9.7L228.9,83A2.13,2.13,0,0,0,228.2,84.5Z"/><path class="cls-1" d="M290.4,141.7l-1.6,15.5-4.6,6-11.5,1.9-15.5-.4L241.4,163a2.66,2.66,0,0,0-1.2.3l-7.1,4.6a2.7,2.7,0,0,0-.7.8l-3,6.3-6.7,2.2a3.11,3.11,0,0,0-.9.7l-6.1,8.1-4,3.2a1.21,1.21,0,0,0-.5.5l-7.1,12.1a1.6,1.6,0,0,0-.2,1.5l3.3,10.7,1.5,7.6-6.1-.9a1.84,1.84,0,0,0-1.8.8l-3.5,5.1-5.9,4a1.78,1.78,0,0,0-.7.8l-4.2,9.1a1.42,1.42,0,0,0-.2.6l-1.49,12a.09.09,0,0,1,0-.05c-5.8,8.5-14.4,15.5-22.5,20.4-4,2.5-3.1,1.9-7.5,3.6a45.25,45.25,0,0,1,6.1-5.5c8.2-7,19.1-17.2,22.9-28.4v-.2c-9.1,9.4-21.4,16.4-32.4,18.9-5.2,1.1-5.5,1-10.6.3,2.2-.5,5.7-1.2,7.9-1.8,13.4-3.8,30.1-15.6,38.1-29.6,5.2-16,15-47.2,15.5-53.9.7-9.1-4.6-15.1-8.4-18.9s-13-8.1-13-8.1l.5-6.8a32.76,32.76,0,0,0,4.2-5.6c3.6-.9,5.5-5.6,6.7-9.4,1.1-3.5,1.4-5.3-.8-4.8.1-.3.1-.6.2-.8,4.8.6,6.2,1.3,6.2.2,0-.8-2.4-4.2-4.6-7.1.2-.7.3-1.4.4-1.9a.55.55,0,0,0,.5-.3c.2-1,.4-2,.5-3q21,3.47,42,6.89l2.9,2.61L242,130a1.23,1.23,0,0,0,.4.8l6.7,7.5a1.8,1.8,0,0,0,.9.6l11.3,3.2,11.5,8.2c.1.1.2.2.3.2a2.07,2.07,0,0,0,2.6-.9l5-10a1.42,1.42,0,0,0,.2-.6l1.9-14,6.8,8.3Z"/></g></g></g></svg>