<svg xmlns="http://www.w3.org/2000/svg" viewBox="0 0 766.39 276.84"><defs><style>.cls-1{fill:#324135;}.cls-2,.cls-3,.cls-4,.cls-7,.cls-8{isolation:isolate;}.cls-3,.cls-4{font-size:178.75px;}.cls-3,.cls-4,.cls-7,.cls-8{fill:#3c3c3b;font-family:SourceSerifPro-Regular, Source Serif Pro;}.cls-4{letter-spacing:-0.05em;}.cls-5{letter-spacing:-0.02em;}.cls-6{letter-spacing:0em;}.cls-7{font-size:69.38px;letter-spacing:-0.03em;}.cls-8{font-size:75.26px;}.cls-9{letter-spacing:-0.01em;}.cls-10{letter-spacing:-0.01em;}.cls-11{letter-spacing:0em;}</style></defs><title>Recurso 1</title><g id="Capa_2" data-name="Capa 2"><g id="Capa_1-2" data-name="Capa 1"><path class="cls-1" d="M99,185.36s2.28,6,.35,20.17c-1.53,11.3-2.74,35.34-3.16,44.72a27.32,27.32,0,0,0,1.24,4.4l-3.83-.48-4.2-4.9-2-9.09a2.11,2.11,0,0,0-.22-.56l-5.86-10-4.62-7.31.73-5.13a1.94,1.94,0,0,0-.27-1.29l-3.85-6.15.38-8.8,2-9a1.9,1.9,0,0,0-.12-1.22l-2.33-5.13C85.33,185.66,99,185.36,99,185.36Z"/><path class="cls-1" d="M115.65,140.62c-6.1,2.08-8.14,5.43-12.72,7.24a47.55,47.55,0,0,1-15.34,5.47c-12.28,1.93-18.42,0-18.42,0s3.86-22.27,7.54-27.89,4.91-4.56,5.79-7a23.84,23.84,0,0,0,.88-2.63s3.86-.88,4.56-3a10,10,0,0,1,.88-2.28,26.21,26.21,0,0,0,11.22-4c0,2.94,5.92,24.88,8.32,33.61a24.59,24.59,0,0,1,2.32-1.69c9.84-6.19,19.34-3.36,25.18-.95-7.6-9.68-19.61-25.39-19.85-28.26-.48-5.71,4.06-7.46,4.9-11.63l24.84,4.12c-.24.61-.45,1.24-.65,1.87a.41.41,0,0,0,0,.34.38.38,0,0,0,.23.18,47.39,47.39,0,0,0-1.65,9.84c-.43.33-.48,0-1.58,2.21-.36.72-.77,14.82,4.1,15a49,49,0,0,1,1.19,6.9,3.25,3.25,0,0,1,.55,3.21C141.16,153.63,133.46,134.52,115.65,140.62Z"/><path class="cls-1" d="M68.3,106.43c-.35,1.93-.53,3.51-.53,3.51l-2.63,4.39S48.83,134.15,45,143.62c-2.91,7.14-5.62,21.67-6.78,28.38l-.37.27L33,170.47l-1.77-6-2.08-10a1.87,1.87,0,0,0-.33-.75L23,145.83l-.12-.15L15,136.94a.74.74,0,0,0-.12-.13l-9.71-8.9L.53,118.23.12,81.59,0,78.24,21.85,79h.07a2,2,0,0,0,1.1-.35l8.32-5.82a1.92,1.92,0,0,0,.81-1.38l1.6-16,5.42-6.2a1.93,1.93,0,0,0,.43-1.65L35.83,29.45l17.28-3.76a1.92,1.92,0,0,0,1.51-1.87V16.11l3.8-5.32a2,2,0,0,0,.26-.51l3-8.85L72.34,0,83.46,5.56a1.91,1.91,0,0,0,1.13.18l5-.72,16,12.79a1.92,1.92,0,0,0,1.28.42l18.68-.81,8.74,4a1.91,1.91,0,0,0,2-.27l8.25-6.88,7.18,12.2a1.93,1.93,0,0,0,1.31.91L162.19,29a1.93,1.93,0,0,0,1.75-.58L174,17.52,184.14,5,215,9l20.91,17.69,6.79,13.1-5.17,7.48a1.89,1.89,0,0,0-.25,1.68l5.59,17.17-4.48,9.71-9.2,7.2a1.93,1.93,0,0,0-.73,1.51v18.93a2,2,0,0,0,.13.68l2.77,7.34-37.5-5.84a20.1,20.1,0,0,0-3.94-6.71.4.4,0,0,0-.26-.14l-.47,0a22.79,22.79,0,0,0-10.54-6.17c-12-3.47-21.61-3-27.57,2.07l-.38,0a.39.39,0,0,0-.32.11,16.77,16.77,0,0,0-2.95,3.61l-.06.09-25.9-4c1-7.32-7.4-9-12.81-9-2.11,0-4.38,1.93-4.38,1.93s-1.76-2.8-3.68-2.11a4.73,4.73,0,0,0-2.63,2.46S96.72,84,89.7,85.9c-5.79,0-9,2.28-10.17,4.74s-4.56,10-4.56,10l-2.28,4.21S68.65,104.5,68.3,106.43Z"/><path class="cls-1" d="M290.39,141.52,288.8,157l-4.62,6L272.63,165l-15.47-.4-15.81-1.66a1.93,1.93,0,0,0-1.24.3L233,167.81a1.88,1.88,0,0,0-.69.79l-3,6.33-6.71,2.24a2,2,0,0,0-.93.67L215.64,186l-4,3.17a1.93,1.93,0,0,0-.46.53l-7.07,12.06a1.91,1.91,0,0,0-.18,1.53l3.3,10.72,1.53,7.65-6.06-.87a1.9,1.9,0,0,0-1.84.81l-3.54,5.11-5.94,4a1.89,1.89,0,0,0-.68.8l-4.16,9.15a1.82,1.82,0,0,0-.16.55l-1.57,12.17-.06-.44c-5.77,8.45-14.43,15.47-22.5,20.41-4,2.45-3.11,1.87-7.52,3.56a49.32,49.32,0,0,1,6.1-5.53c8.23-7,19.14-17.24,22.88-28.42l0-.24c-9.13,9.39-21.36,16.41-32.44,18.85-5.2,1.14-5.48,1-10.55.26,2.23-.49,5.7-1.22,7.88-1.83,13.4-3.76,30.06-15.65,38.06-29.64,5.16-16,15-47.16,15.47-53.86.7-9.12-4.56-15.09-8.42-18.94s-13-8.07-13-8.07l.52-6.84a33.25,33.25,0,0,0,4.19-5.6c3.64-.92,5.49-5.65,6.68-9.4,1.11-3.5,1.36-5.27-.84-4.78.07-.29.15-.57.21-.84,4.81.6,6.23,1.34,6.23.18,0-.76-2.4-4.15-4.59-7.06.16-.73.3-1.37.42-1.94h0a.41.41,0,0,0,.48-.33c.2-1,.41-2,.53-3q21,3.45,42,6.9l3.28,3,2.36,10.23a1.93,1.93,0,0,0,.43.84l6.66,7.49a1.91,1.91,0,0,0,.9.57L261.53,142l11.38,8.13a1.91,1.91,0,0,0,2.82-.7l5-10a2.08,2.08,0,0,0,.18-.6l1.91-14,6.82,8.25Z"/><g class="cls-2"><text class="cls-3" transform="translate(290.46 169.87)">C</text><text class="cls-4" transform="translate(403.25 169.87)">L<tspan class="cls-5" x="97.6" y="0">U</tspan><tspan class="cls-6" x="223.98" y="0">B</tspan></text><text class="cls-7" transform="translate(752.17 169.87)"> </text></g><g class="cls-2"><text class="cls-8" transform="translate(302.9 238.97)">C</text><text class="cls-8" transform="translate(350.39 238.97)"><tspan class="cls-9">A</tspan><tspan x="49.22" y="0">M</tspan><tspan class="cls-10" x="117.11" y="0">P</tspan><tspan class="cls-11" x="160.69" y="0">E</tspan><tspan class="cls-10" x="206.07" y="0">S</tspan><tspan x="243.85" y="0">TRE</tspan></text></g></g></g></svg>